<mxfile host="app.diagrams.net" modified="2023-04-09T16:52:46.338Z" agent="Mozilla/5.0 (Windows NT 10.0; Win64; x64) AppleWebKit/537.36 (KHTML, like Gecko) Chrome/111.0.0.0 Safari/537.36" etag="AqLDW57HPVdfSUjDedAl" version="21.1.5" type="github">
  <diagram name="Page-1" id="d2BdkmhG9VL7eU5muwmn">
    <mxGraphModel dx="1176" dy="494" grid="1" gridSize="10" guides="1" tooltips="1" connect="1" arrows="1" fold="1" page="1" pageScale="1" pageWidth="850" pageHeight="1100" math="0" shadow="0">
      <root>
        <mxCell id="0" />
        <mxCell id="1" parent="0" />
        <mxCell id="aoFI-9I91L1Aa-N3Au2u-4" value="Desktop" style="shape=cube;whiteSpace=wrap;html=1;boundedLbl=1;backgroundOutline=1;darkOpacity=0.05;darkOpacity2=0.1;" vertex="1" parent="1">
          <mxGeometry x="100" y="320" width="100" height="70" as="geometry" />
        </mxCell>
        <mxCell id="aoFI-9I91L1Aa-N3Au2u-6" value="Printer" style="shape=cube;whiteSpace=wrap;html=1;boundedLbl=1;backgroundOutline=1;darkOpacity=0.05;darkOpacity2=0.1;" vertex="1" parent="1">
          <mxGeometry x="538" y="190" width="98" height="70" as="geometry" />
        </mxCell>
        <mxCell id="aoFI-9I91L1Aa-N3Au2u-7" value="" style="image;aspect=fixed;perimeter=ellipsePerimeter;html=1;align=center;shadow=0;dashed=0;spacingTop=3;image=img/lib/active_directory/database_server.svg;" vertex="1" parent="1">
          <mxGeometry x="600" y="407.32" width="76" height="92.68" as="geometry" />
        </mxCell>
        <mxCell id="aoFI-9I91L1Aa-N3Au2u-9" value="" style="verticalLabelPosition=bottom;html=1;verticalAlign=top;strokeWidth=1;align=center;outlineConnect=0;dashed=0;outlineConnect=0;shape=mxgraph.aws3d.dataServer;strokeColor=#5E5E5E;aspect=fixed;direction=east;" vertex="1" parent="1">
          <mxGeometry x="360" y="310" width="93" height="80.15" as="geometry" />
        </mxCell>
        <mxCell id="aoFI-9I91L1Aa-N3Au2u-10" value="Hospital Local Server" style="text;html=1;strokeColor=none;fillColor=none;align=center;verticalAlign=middle;whiteSpace=wrap;rounded=0;" vertex="1" parent="1">
          <mxGeometry x="360" y="390.15" width="116.5" height="30" as="geometry" />
        </mxCell>
        <mxCell id="aoFI-9I91L1Aa-N3Au2u-11" value="Database Server" style="text;html=1;strokeColor=none;fillColor=none;align=center;verticalAlign=middle;whiteSpace=wrap;rounded=0;" vertex="1" parent="1">
          <mxGeometry x="538" y="500" width="116.5" height="30" as="geometry" />
        </mxCell>
        <mxCell id="aoFI-9I91L1Aa-N3Au2u-12" value="" style="endArrow=classic;html=1;rounded=0;exitX=0;exitY=0;exitDx=100;exitDy=45;exitPerimeter=0;" edge="1" parent="1" source="aoFI-9I91L1Aa-N3Au2u-4">
          <mxGeometry width="50" height="50" relative="1" as="geometry">
            <mxPoint x="400" y="350" as="sourcePoint" />
            <mxPoint x="360" y="350" as="targetPoint" />
          </mxGeometry>
        </mxCell>
        <mxCell id="aoFI-9I91L1Aa-N3Au2u-13" value="" style="endArrow=classic;html=1;rounded=0;entryX=0.25;entryY=0;entryDx=0;entryDy=0;" edge="1" parent="1" source="aoFI-9I91L1Aa-N3Au2u-9" target="aoFI-9I91L1Aa-N3Au2u-7">
          <mxGeometry width="50" height="50" relative="1" as="geometry">
            <mxPoint x="210" y="375" as="sourcePoint" />
            <mxPoint x="370" y="360" as="targetPoint" />
            <Array as="points">
              <mxPoint x="500" y="380" />
            </Array>
          </mxGeometry>
        </mxCell>
        <mxCell id="aoFI-9I91L1Aa-N3Au2u-16" value="" style="endArrow=classic;html=1;rounded=0;entryX=0;entryY=0;entryDx=0;entryDy=25;entryPerimeter=0;" edge="1" parent="1" target="aoFI-9I91L1Aa-N3Au2u-6">
          <mxGeometry width="50" height="50" relative="1" as="geometry">
            <mxPoint x="440" y="310" as="sourcePoint" />
            <mxPoint x="450" y="300" as="targetPoint" />
            <Array as="points">
              <mxPoint x="430" y="320" />
            </Array>
          </mxGeometry>
        </mxCell>
        <mxCell id="aoFI-9I91L1Aa-N3Au2u-17" value="&amp;lt;&amp;lt;primary network&amp;gt;&amp;gt;" style="text;html=1;strokeColor=none;fillColor=none;align=center;verticalAlign=middle;whiteSpace=wrap;rounded=0;rotation=0;" vertex="1" parent="1">
          <mxGeometry x="210" y="330" width="140" height="30" as="geometry" />
        </mxCell>
        <mxCell id="aoFI-9I91L1Aa-N3Au2u-18" value="&amp;lt;&amp;lt;primary network&amp;gt;&amp;gt;" style="text;html=1;strokeColor=none;fillColor=none;align=center;verticalAlign=middle;whiteSpace=wrap;rounded=0;rotation=-44;" vertex="1" parent="1">
          <mxGeometry x="402.19" y="244.05" width="120" height="30" as="geometry" />
        </mxCell>
        <mxCell id="aoFI-9I91L1Aa-N3Au2u-19" value="&amp;lt;&amp;lt;primary network&amp;gt;&amp;gt;" style="text;html=1;strokeColor=none;fillColor=none;align=center;verticalAlign=middle;whiteSpace=wrap;rounded=0;rotation=15;" vertex="1" parent="1">
          <mxGeometry x="476.5" y="360" width="120" height="30" as="geometry" />
        </mxCell>
      </root>
    </mxGraphModel>
  </diagram>
</mxfile>
